# MagicaVoxel @ Ephtracy

# group
o mupf_1

# material
mtllib mupf_new.mtl
usemtl palette

# normals
vn -1 0 0
vn 1 0 0
vn 0 -1 0
vn 0 1 0
vn 0 0 -1
vn 0 0 1

# texcoords
vt 0.337891 0.5
vt 0.599609 0.5
vt 0.958984 0.5
vt 0.994141 0.5

# verts
v -1 1.2 -0.3
v -1 1.5 -0.3
v -1 1.2 -0.2
v -1 1.5 -0.2
v -0.9 0.6 -0.3
v -0.9 1 -0.3
v -0.9 0.6 -0.2
v -0.9 1 -0.2
v -0.8 1 -0.3
v -0.8 1.2 -0.3
v -0.8 1 -0.2
v -0.8 1.2 -0.2
v -0.8 0.4 -0.1
v -0.8 0.6 -0.1
v -0.8 0.4 0
v -0.8 0.6 0
v -0.7 0.5 -0.3
v -0.7 0.6 -0.3
v -0.7 0.5 -0.2
v -0.7 0.6 -0.2
v -0.7 0.6 -0.1
v -0.7 0.7 -0.1
v -0.7 0.6 0
v -0.7 0.7 0
v -0.6 0.7 -0.1
v -0.6 0.8 -0.1
v -0.6 0.7 0
v -0.6 0.8 0
v -0.5 0.3 -0.2
v -0.5 0.5 -0.2
v -0.5 0.7 -0.2
v -0.5 1.5 -0.2
v -0.5 0.5 -0.1
v -0.5 0.8 -0.1
v -0.5 1.7 -0.1
v -0.5 2 -0.1
v -0.5 0.5 0
v -0.5 0.8 0
v -0.5 1.7 0
v -0.5 2 0
v -0.5 0.3 0.1
v -0.5 1.5 0.1
v -0.4 0.4 -0.3
v -0.4 0.5 -0.3
v -0.4 0.4 -0.2
v -0.4 0.5 -0.2
v -0.4 1.5 -0.2
v -0.4 1.6 -0.2
v -0.4 0.2 -0.1
v -0.4 0.3 -0.1
v -0.4 1.6 -0.1
v -0.4 1.7 -0.1
v -0.4 0.2 0
v -0.4 0.3 0
v -0.4 1.6 0
v -0.4 1.7 0
v -0.4 1.5 0.1
v -0.4 1.6 0.1
v -0.3 0 -0.1
v -0.3 0.2 -0.1
v -0.3 0 0
v -0.3 0.2 0
v 0.1 0 -0.1
v 0.1 0.3 -0.1
v 0.1 0 0
v 0.1 0.3 0
v 0.2 1.7 -0.1
v 0.2 2 -0.1
v 0.2 1.7 0
v 0.2 2 0
v 0.3 1.6 -0.1
v 0.3 1.7 -0.1
v 0.3 1.6 0
v 0.3 1.7 0
v 0.6 0.4 -0.1
v 0.6 0.5 -0.1
v 0.6 0.4 0
v 0.6 0.5 0
v -0.7 0.7 -0.3
v -0.7 0.9 -0.3
v -0.7 1.3 -0.3
v -0.7 1.5 -0.3
v -0.7 0.7 -0.2
v -0.7 0.9 -0.2
v -0.7 1.3 -0.2
v -0.7 1.5 -0.2
v -0.6 0.9 -0.3
v -0.6 1.3 -0.3
v -0.6 0.9 -0.2
v -0.6 1.3 -0.2
v -0.6 0.4 -0.1
v -0.6 0.5 -0.1
v -0.6 0.4 0
v -0.6 0.5 0
v -0.3 0.6 -0.3
v -0.3 0.7 -0.3
v -0.3 0.6 -0.2
v -0.3 0.7 -0.2
v -0.3 1.6 -0.1
v -0.3 1.7 -0.1
v -0.3 1.6 0
v -0.3 1.7 0
v -0.2 1.7 -0.1
v -0.2 2 -0.1
v -0.2 1.7 0
v -0.2 2 0
v -0.1 0.4 -0.3
v -0.1 0.6 -0.3
v -0.1 0.4 -0.2
v -0.1 0.6 -0.2
v -0.1 0 -0.1
v -0.1 0.3 -0.1
v -0.1 0 0
v -0.1 0.3 0
v 0.3 0 -0.1
v 0.3 0.2 -0.1
v 0.3 0 0
v 0.3 0.2 0
v 0.4 1.5 -0.2
v 0.4 1.6 -0.2
v 0.4 0.2 -0.1
v 0.4 0.3 -0.1
v 0.4 1.6 -0.1
v 0.4 1.7 -0.1
v 0.4 0.2 0
v 0.4 0.3 0
v 0.4 1.6 0
v 0.4 1.7 0
v 0.4 1.5 0.1
v 0.4 1.6 0.1
v 0.5 0.3 -0.2
v 0.5 1.5 -0.2
v 0.5 0.5 -0.1
v 0.5 0.8 -0.1
v 0.5 1.7 -0.1
v 0.5 2 -0.1
v 0.5 0.5 0
v 0.5 0.8 0
v 0.5 1.7 0
v 0.5 2 0
v 0.5 0.3 0.1
v 0.5 1.5 0.1
v 0.6 0.7 -0.1
v 0.6 0.8 -0.1
v 0.6 0.7 0
v 0.6 0.8 0
v 0.7 0.6 -0.1
v 0.7 0.7 -0.1
v 0.7 0.6 0
v 0.7 0.7 0
v 0.8 0.4 -0.1
v 0.8 0.6 -0.1
v 0.8 0.4 0
v 0.8 0.6 0
v -0.3 0 -0.1
v -0.3 0 0
v -0.1 0 -0.1
v -0.1 0 0
v 0.1 0 -0.1
v 0.1 0 0
v 0.3 0 -0.1
v 0.3 0 0
v -0.4 0.2 -0.1
v -0.4 0.2 0
v -0.3 0.2 -0.1
v -0.3 0.2 0
v 0.3 0.2 -0.1
v 0.3 0.2 0
v 0.4 0.2 -0.1
v 0.4 0.2 0
v -0.5 0.3 -0.2
v -0.5 0.3 0.1
v -0.4 0.3 -0.1
v -0.4 0.3 0
v -0.1 0.3 -0.1
v -0.1 0.3 0
v 0.1 0.3 -0.1
v 0.1 0.3 0
v 0.4 0.3 -0.1
v 0.4 0.3 0
v 0.5 0.3 -0.2
v 0.5 0.3 0.1
v -0.8 0.4 -0.1
v -0.8 0.4 0
v -0.6 0.4 -0.1
v -0.6 0.4 0
v -0.4 0.4 -0.3
v -0.4 0.4 -0.2
v -0.1 0.4 -0.3
v -0.1 0.4 -0.2
v 0.6 0.4 -0.1
v 0.6 0.4 0
v 0.8 0.4 -0.1
v 0.8 0.4 0
v -0.7 0.5 -0.3
v -0.7 0.5 -0.2
v -0.6 0.5 -0.1
v -0.6 0.5 0
v -0.5 0.5 -0.2
v -0.5 0.5 -0.1
v -0.5 0.5 0
v -0.4 0.5 -0.3
v -0.4 0.5 -0.2
v 0.5 0.5 -0.1
v 0.5 0.5 0
v 0.6 0.5 -0.1
v 0.6 0.5 0
v -0.9 0.6 -0.3
v -0.9 0.6 -0.2
v -0.7 0.6 -0.3
v -0.7 0.6 -0.2
v -0.7 0.9 -0.3
v -0.7 0.9 -0.2
v -0.6 0.9 -0.3
v -0.6 0.9 -0.2
v -1 1.2 -0.3
v -1 1.2 -0.2
v -0.8 1.2 -0.3
v -0.8 1.2 -0.2
v -0.5 1.7 -0.1
v -0.5 1.7 0
v -0.4 1.7 -0.1
v -0.4 1.7 0
v -0.3 1.7 -0.1
v -0.3 1.7 0
v -0.2 1.7 -0.1
v -0.2 1.7 0
v 0.2 1.7 -0.1
v 0.2 1.7 0
v 0.3 1.7 -0.1
v 0.3 1.7 0
v 0.4 1.7 -0.1
v 0.4 1.7 0
v 0.5 1.7 -0.1
v 0.5 1.7 0
v -0.8 0.6 -0.1
v -0.8 0.6 0
v -0.7 0.6 -0.1
v -0.7 0.6 0
v -0.3 0.6 -0.3
v -0.3 0.6 -0.2
v -0.1 0.6 -0.3
v -0.1 0.6 -0.2
v 0.7 0.6 -0.1
v 0.7 0.6 0
v 0.8 0.6 -0.1
v 0.8 0.6 0
v -0.7 0.7 -0.3
v -0.7 0.7 -0.2
v -0.7 0.7 -0.1
v -0.7 0.7 0
v -0.6 0.7 -0.1
v -0.6 0.7 0
v -0.5 0.7 -0.2
v -0.3 0.7 -0.3
v -0.3 0.7 -0.2
v 0.6 0.7 -0.1
v 0.6 0.7 0
v 0.7 0.7 -0.1
v 0.7 0.7 0
v -0.6 0.8 -0.1
v -0.6 0.8 0
v -0.5 0.8 -0.1
v -0.5 0.8 0
v 0.5 0.8 -0.1
v 0.5 0.8 0
v 0.6 0.8 -0.1
v 0.6 0.8 0
v -0.9 1 -0.3
v -0.9 1 -0.2
v -0.8 1 -0.3
v -0.8 1 -0.2
v -0.7 1.3 -0.3
v -0.7 1.3 -0.2
v -0.6 1.3 -0.3
v -0.6 1.3 -0.2
v -1 1.5 -0.3
v -1 1.5 -0.2
v -0.7 1.5 -0.3
v -0.7 1.5 -0.2
v -0.5 1.5 -0.2
v -0.5 1.5 0.1
v -0.4 1.5 -0.2
v -0.4 1.5 0.1
v 0.4 1.5 -0.2
v 0.4 1.5 0.1
v 0.5 1.5 -0.2
v 0.5 1.5 0.1
v -0.4 1.6 -0.2
v -0.4 1.6 -0.1
v -0.4 1.6 0
v -0.4 1.6 0.1
v -0.3 1.6 -0.1
v -0.3 1.6 0
v 0.3 1.6 -0.1
v 0.3 1.6 0
v 0.4 1.6 -0.2
v 0.4 1.6 -0.1
v 0.4 1.6 0
v 0.4 1.6 0.1
v -0.5 2 -0.1
v -0.5 2 0
v -0.2 2 -0.1
v -0.2 2 0
v 0.2 2 -0.1
v 0.2 2 0
v 0.5 2 -0.1
v 0.5 2 0
v -0.4 0.4 -0.3
v -0.1 0.4 -0.3
v -0.7 0.5 -0.3
v -0.4 0.5 -0.3
v -0.9 0.6 -0.3
v -0.7 0.6 -0.3
v -0.3 0.6 -0.3
v -0.1 0.6 -0.3
v -0.7 0.7 -0.3
v -0.3 0.7 -0.3
v -0.7 0.9 -0.3
v -0.6 0.9 -0.3
v -0.9 1 -0.3
v -0.8 1 -0.3
v -1 1.2 -0.3
v -0.8 1.2 -0.3
v -0.7 1.3 -0.3
v -0.6 1.3 -0.3
v -1 1.5 -0.3
v -0.7 1.5 -0.3
v -0.5 0.3 -0.2
v 0.5 0.3 -0.2
v -0.4 0.4 -0.2
v -0.1 0.4 -0.2
v -0.5 0.5 -0.2
v -0.4 0.5 -0.2
v -0.3 0.6 -0.2
v -0.1 0.6 -0.2
v -0.5 0.7 -0.2
v -0.3 0.7 -0.2
v -0.5 1.5 -0.2
v -0.4 1.5 -0.2
v 0.4 1.5 -0.2
v 0.5 1.5 -0.2
v -0.4 1.6 -0.2
v 0.4 1.6 -0.2
v -0.3 0 -0.1
v -0.1 0 -0.1
v 0.1 0 -0.1
v 0.3 0 -0.1
v -0.4 0.2 -0.1
v -0.3 0.2 -0.1
v 0.3 0.2 -0.1
v 0.4 0.2 -0.1
v -0.4 0.3 -0.1
v -0.1 0.3 -0.1
v 0.1 0.3 -0.1
v 0.4 0.3 -0.1
v -0.8 0.4 -0.1
v -0.6 0.4 -0.1
v 0.6 0.4 -0.1
v 0.8 0.4 -0.1
v -0.6 0.5 -0.1
v -0.5 0.5 -0.1
v 0.5 0.5 -0.1
v 0.6 0.5 -0.1
v -0.8 0.6 -0.1
v -0.7 0.6 -0.1
v 0.7 0.6 -0.1
v 0.8 0.6 -0.1
v -0.7 0.7 -0.1
v -0.6 0.7 -0.1
v 0.6 0.7 -0.1
v 0.7 0.7 -0.1
v -0.6 0.8 -0.1
v -0.5 0.8 -0.1
v 0.5 0.8 -0.1
v 0.6 0.8 -0.1
v -0.4 1.6 -0.1
v -0.3 1.6 -0.1
v 0.3 1.6 -0.1
v 0.4 1.6 -0.1
v -0.5 1.7 -0.1
v -0.4 1.7 -0.1
v -0.3 1.7 -0.1
v -0.2 1.7 -0.1
v 0.2 1.7 -0.1
v 0.3 1.7 -0.1
v 0.4 1.7 -0.1
v 0.5 1.7 -0.1
v -0.5 2 -0.1
v -0.2 2 -0.1
v 0.2 2 -0.1
v 0.5 2 -0.1
v -0.7 0.5 -0.2
v -0.5 0.5 -0.2
v -0.9 0.6 -0.2
v -0.7 0.6 -0.2
v -0.7 0.7 -0.2
v -0.5 0.7 -0.2
v -0.7 0.9 -0.2
v -0.6 0.9 -0.2
v -0.9 1 -0.2
v -0.8 1 -0.2
v -1 1.2 -0.2
v -0.8 1.2 -0.2
v -0.7 1.3 -0.2
v -0.6 1.3 -0.2
v -1 1.5 -0.2
v -0.7 1.5 -0.2
v -0.3 0 0
v -0.1 0 0
v 0.1 0 0
v 0.3 0 0
v -0.4 0.2 0
v -0.3 0.2 0
v 0.3 0.2 0
v 0.4 0.2 0
v -0.4 0.3 0
v -0.1 0.3 0
v 0.1 0.3 0
v 0.4 0.3 0
v -0.8 0.4 0
v -0.6 0.4 0
v 0.6 0.4 0
v 0.8 0.4 0
v -0.6 0.5 0
v -0.5 0.5 0
v 0.5 0.5 0
v 0.6 0.5 0
v -0.8 0.6 0
v -0.7 0.6 0
v 0.7 0.6 0
v 0.8 0.6 0
v -0.7 0.7 0
v -0.6 0.7 0
v 0.6 0.7 0
v 0.7 0.7 0
v -0.6 0.8 0
v -0.5 0.8 0
v 0.5 0.8 0
v 0.6 0.8 0
v -0.4 1.6 0
v -0.3 1.6 0
v 0.3 1.6 0
v 0.4 1.6 0
v -0.5 1.7 0
v -0.4 1.7 0
v -0.3 1.7 0
v -0.2 1.7 0
v 0.2 1.7 0
v 0.3 1.7 0
v 0.4 1.7 0
v 0.5 1.7 0
v -0.5 2 0
v -0.2 2 0
v 0.2 2 0
v 0.5 2 0
v -0.5 0.3 0.1
v 0.5 0.3 0.1
v -0.1 0.6 0.1
v 0.1 0.6 0.1
v -0.2 0.7 0.1
v -0.1 0.7 0.1
v 0.1 0.7 0.1
v 0.2 0.7 0.1
v -0.2 0.8 0.1
v -0.1 0.8 0.1
v 0.1 0.8 0.1
v 0.2 0.8 0.1
v -0.3 0.9 0.1
v -0.1 0.9 0.1
v 0.1 0.9 0.1
v 0.3 0.9 0.1
v -0.4 1 0.1
v -0.3 1 0.1
v -0.1 1 0.1
v 0.1 1 0.1
v 0.3 1 0.1
v 0.4 1 0.1
v -0.4 1.2 0.1
v -0.3 1.2 0.1
v -0.1 1.2 0.1
v 0.1 1.2 0.1
v 0.3 1.2 0.1
v 0.4 1.2 0.1
v -0.3 1.3 0.1
v -0.1 1.3 0.1
v 0.1 1.3 0.1
v 0.3 1.3 0.1
v -0.5 1.5 0.1
v -0.4 1.5 0.1
v 0.4 1.5 0.1
v 0.5 1.5 0.1
v -0.4 1.6 0.1
v 0.4 1.6 0.1

# faces
f 3/1/1 2/1/1 1/1/1
f 4/1/1 2/1/1 3/1/1
f 7/1/1 6/1/1 5/1/1
f 8/1/1 6/1/1 7/1/1
f 11/1/1 10/1/1 9/1/1
f 12/1/1 10/1/1 11/1/1
f 15/2/1 14/2/1 13/2/1
f 16/2/1 14/2/1 15/2/1
f 19/1/1 18/1/1 17/1/1
f 20/1/1 18/1/1 19/1/1
f 23/2/1 22/2/1 21/2/1
f 24/2/1 22/2/1 23/2/1
f 27/2/1 26/2/1 25/2/1
f 28/2/1 26/2/1 27/2/1
f 33/2/1 30/2/1 29/2/1
f 33/2/1 32/2/1 31/2/1
f 33/2/1 31/2/1 30/2/1
f 34/2/1 32/2/1 33/2/1
f 37/2/1 33/2/1 29/2/1
f 38/2/1 32/2/1 34/2/1
f 39/2/1 36/2/1 35/2/1
f 40/2/1 36/2/1 39/2/1
f 41/2/1 38/2/1 37/2/1
f 41/2/1 37/2/1 29/2/1
f 42/2/1 32/2/1 38/2/1
f 42/2/1 38/2/1 41/2/1
f 45/1/1 44/1/1 43/1/1
f 46/1/1 44/1/1 45/1/1
f 51/2/1 48/2/1 47/2/1
f 53/2/1 50/2/1 49/2/1
f 54/2/1 50/2/1 53/2/1
f 55/2/1 52/2/1 51/2/1
f 55/2/1 51/2/1 47/2/1
f 56/2/1 52/2/1 55/2/1
f 57/2/1 55/2/1 47/2/1
f 58/2/1 55/2/1 57/2/1
f 61/2/1 60/2/1 59/2/1
f 62/2/1 60/2/1 61/2/1
f 65/2/1 64/2/1 63/2/1
f 66/2/1 64/2/1 65/2/1
f 69/2/1 68/2/1 67/2/1
f 70/2/1 68/2/1 69/2/1
f 73/2/1 72/2/1 71/2/1
f 74/2/1 72/2/1 73/2/1
f 77/2/1 76/2/1 75/2/1
f 78/2/1 76/2/1 77/2/1
f 79/1/2 80/1/2 83/1/2
f 83/1/2 80/1/2 84/1/2
f 81/1/2 82/1/2 85/1/2
f 85/1/2 82/1/2 86/1/2
f 87/1/2 88/1/2 89/1/2
f 89/1/2 88/1/2 90/1/2
f 91/2/2 92/2/2 93/2/2
f 93/2/2 92/2/2 94/2/2
f 95/1/2 96/1/2 97/1/2
f 97/1/2 96/1/2 98/1/2
f 99/2/2 100/2/2 101/2/2
f 101/2/2 100/2/2 102/2/2
f 103/2/2 104/2/2 105/2/2
f 105/2/2 104/2/2 106/2/2
f 107/1/2 108/1/2 109/1/2
f 109/1/2 108/1/2 110/1/2
f 111/2/2 112/2/2 113/2/2
f 113/2/2 112/2/2 114/2/2
f 115/2/2 116/2/2 117/2/2
f 117/2/2 116/2/2 118/2/2
f 119/2/2 120/2/2 123/2/2
f 121/2/2 122/2/2 125/2/2
f 125/2/2 122/2/2 126/2/2
f 123/2/2 124/2/2 127/2/2
f 119/2/2 123/2/2 127/2/2
f 127/2/2 124/2/2 128/2/2
f 119/2/2 127/2/2 129/2/2
f 129/2/2 127/2/2 130/2/2
f 131/2/2 132/2/2 133/2/2
f 133/2/2 132/2/2 134/2/2
f 131/2/2 133/2/2 137/2/2
f 134/2/2 132/2/2 138/2/2
f 135/2/2 136/2/2 139/2/2
f 139/2/2 136/2/2 140/2/2
f 137/2/2 138/2/2 141/2/2
f 131/2/2 137/2/2 141/2/2
f 138/2/2 132/2/2 142/2/2
f 141/2/2 138/2/2 142/2/2
f 143/2/2 144/2/2 145/2/2
f 145/2/2 144/2/2 146/2/2
f 147/2/2 148/2/2 149/2/2
f 149/2/2 148/2/2 150/2/2
f 151/2/2 152/2/2 153/2/2
f 153/2/2 152/2/2 154/2/2
f 157/2/3 156/2/3 155/2/3
f 158/2/3 156/2/3 157/2/3
f 161/2/3 160/2/3 159/2/3
f 162/2/3 160/2/3 161/2/3
f 165/2/3 164/2/3 163/2/3
f 166/2/3 164/2/3 165/2/3
f 169/2/3 168/2/3 167/2/3
f 170/2/3 168/2/3 169/2/3
f 173/2/3 172/2/3 171/2/3
f 174/2/3 172/2/3 173/2/3
f 175/2/3 173/2/3 171/2/3
f 176/2/3 172/2/3 174/2/3
f 177/2/3 175/2/3 171/2/3
f 177/2/3 176/2/3 175/2/3
f 178/2/3 172/2/3 176/2/3
f 178/2/3 176/2/3 177/2/3
f 179/2/3 177/2/3 171/2/3
f 180/2/3 172/2/3 178/2/3
f 181/2/3 179/2/3 171/2/3
f 181/2/3 180/2/3 179/2/3
f 182/2/3 172/2/3 180/2/3
f 182/2/3 180/2/3 181/2/3
f 185/2/3 184/2/3 183/2/3
f 186/2/3 184/2/3 185/2/3
f 189/1/3 188/1/3 187/1/3
f 190/1/3 188/1/3 189/1/3
f 193/2/3 192/2/3 191/2/3
f 194/2/3 192/2/3 193/2/3
f 199/1/3 196/1/3 195/1/3
f 200/2/3 198/2/3 197/2/3
f 201/2/3 198/2/3 200/2/3
f 202/1/3 199/1/3 195/1/3
f 203/1/3 199/1/3 202/1/3
f 206/2/3 205/2/3 204/2/3
f 207/2/3 205/2/3 206/2/3
f 210/1/3 209/1/3 208/1/3
f 211/1/3 209/1/3 210/1/3
f 214/1/3 213/1/3 212/1/3
f 215/1/3 213/1/3 214/1/3
f 218/1/3 217/1/3 216/1/3
f 219/1/3 217/1/3 218/1/3
f 222/2/3 221/2/3 220/2/3
f 223/2/3 221/2/3 222/2/3
f 226/2/3 225/2/3 224/2/3
f 227/2/3 225/2/3 226/2/3
f 230/2/3 229/2/3 228/2/3
f 231/2/3 229/2/3 230/2/3
f 234/2/3 233/2/3 232/2/3
f 235/2/3 233/2/3 234/2/3
f 236/2/4 237/2/4 238/2/4
f 238/2/4 237/2/4 239/2/4
f 240/1/4 241/1/4 242/1/4
f 242/1/4 241/1/4 243/1/4
f 244/2/4 245/2/4 246/2/4
f 246/2/4 245/2/4 247/2/4
f 250/2/4 251/2/4 252/2/4
f 252/2/4 251/2/4 253/2/4
f 248/1/4 249/1/4 254/1/4
f 248/1/4 254/1/4 255/1/4
f 255/1/4 254/1/4 256/1/4
f 257/2/4 258/2/4 259/2/4
f 259/2/4 258/2/4 260/2/4
f 261/2/4 262/2/4 263/2/4
f 263/2/4 262/2/4 264/2/4
f 265/2/4 266/2/4 267/2/4
f 267/2/4 266/2/4 268/2/4
f 269/1/4 270/1/4 271/1/4
f 271/1/4 270/1/4 272/1/4
f 273/1/4 274/1/4 275/1/4
f 275/1/4 274/1/4 276/1/4
f 277/1/4 278/1/4 279/1/4
f 279/1/4 278/1/4 280/1/4
f 281/2/4 282/2/4 283/2/4
f 283/2/4 282/2/4 284/2/4
f 285/2/4 286/2/4 287/2/4
f 287/2/4 286/2/4 288/2/4
f 289/2/4 290/2/4 293/2/4
f 291/2/4 292/2/4 294/2/4
f 289/2/4 293/2/4 295/2/4
f 293/2/4 294/2/4 295/2/4
f 294/2/4 292/2/4 296/2/4
f 295/2/4 294/2/4 296/2/4
f 289/2/4 295/2/4 297/2/4
f 297/2/4 295/2/4 298/2/4
f 296/2/4 292/2/4 299/2/4
f 299/2/4 292/2/4 300/2/4
f 301/2/4 302/2/4 303/2/4
f 303/2/4 302/2/4 304/2/4
f 305/2/4 306/2/4 307/2/4
f 307/2/4 306/2/4 308/2/4
f 312/1/5 310/1/5 309/1/5
f 314/1/5 312/1/5 311/1/5
f 315/1/5 310/1/5 312/1/5
f 315/1/5 312/1/5 314/1/5
f 316/1/5 310/1/5 315/1/5
f 317/1/5 314/1/5 313/1/5
f 317/1/5 315/1/5 314/1/5
f 318/1/5 315/1/5 317/1/5
f 319/1/5 317/1/5 313/1/5
f 321/1/5 319/1/5 313/1/5
f 321/1/5 320/1/5 319/1/5
f 322/1/5 320/1/5 321/1/5
f 324/1/5 320/1/5 322/1/5
f 325/1/5 320/1/5 324/1/5
f 325/1/5 324/1/5 323/1/5
f 326/1/5 320/1/5 325/1/5
f 327/1/5 325/1/5 323/1/5
f 328/1/5 325/1/5 327/1/5
f 331/2/5 330/2/5 329/2/5
f 332/2/5 330/2/5 331/2/5
f 333/2/5 331/2/5 329/2/5
f 334/2/5 331/2/5 333/2/5
f 336/2/5 330/2/5 332/2/5
f 338/2/5 336/2/5 335/2/5
f 339/2/5 338/2/5 337/2/5
f 340/2/5 338/2/5 339/2/5
f 341/2/5 330/2/5 336/2/5
f 341/2/5 338/2/5 340/2/5
f 341/2/5 336/2/5 338/2/5
f 342/2/5 330/2/5 341/2/5
f 343/2/5 341/2/5 340/2/5
f 344/2/5 341/2/5 343/2/5
f 350/2/5 346/2/5 345/2/5
f 351/2/5 348/2/5 347/2/5
f 353/2/5 350/2/5 349/2/5
f 354/2/5 346/2/5 350/2/5
f 354/2/5 350/2/5 353/2/5
f 355/2/5 352/2/5 351/2/5
f 355/2/5 351/2/5 347/2/5
f 356/2/5 352/2/5 355/2/5
f 361/2/5 358/2/5 357/2/5
f 364/2/5 360/2/5 359/2/5
f 365/2/5 362/2/5 361/2/5
f 365/2/5 361/2/5 357/2/5
f 366/2/5 362/2/5 365/2/5
f 367/2/5 364/2/5 363/2/5
f 367/2/5 360/2/5 364/2/5
f 368/2/5 360/2/5 367/2/5
f 369/2/5 362/2/5 366/2/5
f 370/2/5 362/2/5 369/2/5
f 371/2/5 367/2/5 363/2/5
f 372/2/5 367/2/5 371/2/5
f 373/2/5 362/2/5 370/2/5
f 374/2/5 362/2/5 373/2/5
f 375/2/5 371/2/5 363/2/5
f 376/2/5 371/2/5 375/2/5
f 382/2/5 378/2/5 377/2/5
f 383/2/5 378/2/5 382/2/5
f 386/2/5 380/2/5 379/2/5
f 387/2/5 380/2/5 386/2/5
f 389/2/5 384/2/5 383/2/5
f 389/2/5 382/2/5 381/2/5
f 389/2/5 383/2/5 382/2/5
f 390/2/5 384/2/5 389/2/5
f 391/2/5 388/2/5 387/2/5
f 391/2/5 387/2/5 386/2/5
f 391/2/5 386/2/5 385/2/5
f 392/2/5 388/2/5 391/2/5
f 393/1/6 394/1/6 396/1/6
f 396/1/6 394/1/6 397/1/6
f 395/1/6 396/1/6 397/1/6
f 397/1/6 394/1/6 398/1/6
f 395/1/6 397/1/6 399/1/6
f 395/1/6 399/1/6 401/1/6
f 399/1/6 400/1/6 401/1/6
f 401/1/6 400/1/6 402/1/6
f 402/1/6 400/1/6 404/1/6
f 404/1/6 400/1/6 405/1/6
f 403/1/6 404/1/6 405/1/6
f 405/1/6 400/1/6 406/1/6
f 403/1/6 405/1/6 407/1/6
f 407/1/6 405/1/6 408/1/6
f 409/2/6 410/2/6 414/2/6
f 411/2/6 412/2/6 415/2/6
f 413/2/6 414/2/6 417/2/6
f 414/2/6 410/2/6 418/2/6
f 417/2/6 414/2/6 418/2/6
f 415/2/6 416/2/6 419/2/6
f 411/2/6 415/2/6 419/2/6
f 419/2/6 416/2/6 420/2/6
f 421/2/6 422/2/6 425/2/6
f 423/2/6 424/2/6 428/2/6
f 425/2/6 426/2/6 429/2/6
f 421/2/6 425/2/6 429/2/6
f 429/2/6 426/2/6 430/2/6
f 427/2/6 428/2/6 431/2/6
f 428/2/6 424/2/6 431/2/6
f 431/2/6 424/2/6 432/2/6
f 430/2/6 426/2/6 433/2/6
f 433/2/6 426/2/6 434/2/6
f 427/2/6 431/2/6 435/2/6
f 435/2/6 431/2/6 436/2/6
f 434/2/6 426/2/6 437/2/6
f 437/2/6 426/2/6 438/2/6
f 427/2/6 435/2/6 439/2/6
f 439/2/6 435/2/6 440/2/6
f 441/2/6 442/2/6 446/2/6
f 446/2/6 442/2/6 447/2/6
f 443/2/6 444/2/6 450/2/6
f 450/2/6 444/2/6 451/2/6
f 447/2/6 448/2/6 453/2/6
f 445/2/6 446/2/6 453/2/6
f 446/2/6 447/2/6 453/2/6
f 453/2/6 448/2/6 454/2/6
f 451/2/6 452/2/6 455/2/6
f 450/2/6 451/2/6 455/2/6
f 449/2/6 450/2/6 455/2/6
f 455/2/6 452/2/6 456/2/6
f 457/2/6 458/2/6 459/2/6
f 459/2/6 458/2/6 460/2/6
f 457/2/6 459/2/6 461/2/6
f 459/4/6 460/4/6 462/4/6
f 461/2/6 459/2/6 462/2/6
f 460/2/6 458/2/6 463/2/6
f 462/4/6 460/4/6 463/4/6
f 463/2/6 458/2/6 464/2/6
f 461/4/6 462/4/6 465/4/6
f 457/2/6 461/2/6 465/2/6
f 462/3/6 463/3/6 466/3/6
f 465/4/6 462/4/6 466/4/6
f 463/4/6 464/4/6 467/4/6
f 466/3/6 463/3/6 467/3/6
f 464/2/6 458/2/6 468/2/6
f 467/4/6 464/4/6 468/4/6
f 466/2/6 467/2/6 469/2/6
f 465/2/6 466/2/6 469/2/6
f 467/2/6 468/2/6 469/2/6
f 457/2/6 465/2/6 469/2/6
f 469/2/6 468/2/6 470/2/6
f 470/2/6 468/2/6 471/2/6
f 468/2/6 458/2/6 472/2/6
f 471/2/6 468/2/6 472/2/6
f 457/2/6 469/2/6 473/2/6
f 469/3/6 470/3/6 474/3/6
f 473/2/6 469/2/6 474/2/6
f 470/2/6 471/2/6 475/2/6
f 474/3/6 470/3/6 475/3/6
f 471/3/6 472/3/6 476/3/6
f 475/2/6 471/2/6 476/2/6
f 472/2/6 458/2/6 477/2/6
f 476/3/6 472/3/6 477/3/6
f 477/2/6 458/2/6 478/2/6
f 473/3/6 474/3/6 479/3/6
f 457/2/6 473/2/6 479/2/6
f 474/4/6 475/4/6 480/4/6
f 479/3/6 474/3/6 480/3/6
f 475/2/6 476/2/6 481/2/6
f 480/4/6 475/4/6 481/4/6
f 476/4/6 477/4/6 482/4/6
f 481/2/6 476/2/6 482/2/6
f 477/3/6 478/3/6 483/3/6
f 482/4/6 477/4/6 483/4/6
f 478/2/6 458/2/6 484/2/6
f 483/3/6 478/3/6 484/3/6
f 479/2/6 480/2/6 485/2/6
f 480/3/6 481/3/6 485/3/6
f 481/2/6 482/2/6 486/2/6
f 485/3/6 481/3/6 486/3/6
f 482/3/6 483/3/6 487/3/6
f 486/2/6 482/2/6 487/2/6
f 483/2/6 484/2/6 488/2/6
f 487/3/6 483/3/6 488/3/6
f 485/2/6 486/2/6 489/2/6
f 479/2/6 485/2/6 489/2/6
f 487/2/6 488/2/6 489/2/6
f 486/2/6 487/2/6 489/2/6
f 457/2/6 479/2/6 489/2/6
f 489/2/6 488/2/6 490/2/6
f 488/2/6 484/2/6 491/2/6
f 490/2/6 488/2/6 491/2/6
f 484/2/6 458/2/6 491/2/6
f 491/2/6 458/2/6 492/2/6
f 490/2/6 491/2/6 493/2/6
f 493/2/6 491/2/6 494/2/6
